<svg width="329" height="74" viewBox="0 0 329 74" fill="none" xmlns="http://www.w3.org/2000/svg">
<g filter="url(#filter0_i_719_7674)">
<rect x="173" y="28" width="84" height="42" rx="21" fill="#F9F0FF"/>
</g>
<g filter="url(#filter1_i_719_7674)">
<rect x="71" y="28" width="42.4229" height="42.4229" rx="21.2115" fill="#EBF5FF"/>
</g>
<mask id="mask0_719_7674" style="mask-type:alpha" maskUnits="userSpaceOnUse" x="71" y="28" width="43" height="43">
<rect x="71.4714" y="28.4714" width="41.4802" height="41.4802" rx="20.7401" fill="#F9F0FF" stroke="#0088FF" stroke-width="0.942731"/>
</mask>
<g mask="url(#mask0_719_7674)">
<path d="M120.022 10.0889L52.1455 49.6836" stroke="#0088FF" stroke-width="0.471366"/>
<path d="M121.908 11.9736L54.0312 51.5683" stroke="#0088FF" stroke-width="0.471366"/>
<path d="M123.793 13.8594L55.916 53.4541" stroke="#0088FF" stroke-width="0.471366"/>
<path d="M125.678 15.7451L57.8018 55.3398" stroke="#0088FF" stroke-width="0.471366"/>
<path d="M127.564 17.6309L59.6875 57.2256" stroke="#0088FF" stroke-width="0.471366"/>
<path d="M129.449 19.5156L61.5723 59.1103" stroke="#0088FF" stroke-width="0.471366"/>
<path d="M131.335 21.4014L63.458 60.9961" stroke="#0088FF" stroke-width="0.471366"/>
<path d="M133.22 23.2871L65.3438 62.8818" stroke="#0088FF" stroke-width="0.471366"/>
<path d="M135.106 25.1719L67.2295 64.7666" stroke="#0088FF" stroke-width="0.471366"/>
<path d="M136.991 27.0576L69.1143 66.6523" stroke="#0088FF" stroke-width="0.471366"/>
<path d="M138.877 28.9434L71 68.5381" stroke="#0088FF" stroke-width="0.471366"/>
<path d="M140.762 30.8291L72.8857 70.4238" stroke="#0088FF" stroke-width="0.471366"/>
<path d="M142.647 32.7139L74.7705 72.3086" stroke="#0088FF" stroke-width="0.471366"/>
<path d="M144.533 34.5996L76.6562 74.1943" stroke="#0088FF" stroke-width="0.471366"/>
<path d="M146.419 36.4854L78.542 76.0801" stroke="#0088FF" stroke-width="0.471366"/>
<path d="M148.304 38.3701L80.4277 77.9648" stroke="#0088FF" stroke-width="0.471366"/>
<path d="M138.877 47.7979L71 87.3926" stroke="#0088FF" stroke-width="0.471366"/>
</g>
<g filter="url(#filter2_i_719_7674)">
<rect x="173" y="28" width="42.4229" height="42.4229" rx="21.2115" fill="#F9F0FF"/>
</g>
<mask id="mask1_719_7674" style="mask-type:alpha" maskUnits="userSpaceOnUse" x="173" y="28" width="43" height="43">
<rect x="173" y="28" width="42.4229" height="42.4229" rx="21.2115" fill="#F9F0FF"/>
</mask>
<g mask="url(#mask1_719_7674)">
<path d="M222.022 10.0889L154.146 49.6836" stroke="#A16BFF" stroke-width="0.471366"/>
<path d="M223.908 11.9736L156.031 51.5683" stroke="#A16BFF" stroke-width="0.471366"/>
<path d="M225.793 13.8594L157.916 53.4541" stroke="#A16BFF" stroke-width="0.471366"/>
<path d="M227.678 15.7451L159.802 55.3398" stroke="#A16BFF" stroke-width="0.471366"/>
<path d="M229.564 17.6309L161.688 57.2256" stroke="#A16BFF" stroke-width="0.471366"/>
<path d="M231.449 19.5156L163.572 59.1103" stroke="#A16BFF" stroke-width="0.471366"/>
<path d="M233.335 21.4014L165.458 60.9961" stroke="#A16BFF" stroke-width="0.471366"/>
<path d="M235.22 23.2871L167.344 62.8818" stroke="#A16BFF" stroke-width="0.471366"/>
<path d="M237.106 25.1719L169.229 64.7666" stroke="#A16BFF" stroke-width="0.471366"/>
<path d="M238.991 27.0576L171.114 66.6523" stroke="#A16BFF" stroke-width="0.471366"/>
<path d="M240.877 28.9434L173 68.5381" stroke="#A16BFF" stroke-width="0.471366"/>
<path d="M242.762 30.8291L174.886 70.4238" stroke="#A16BFF" stroke-width="0.471366"/>
<path d="M244.647 32.7139L176.771 72.3086" stroke="#A16BFF" stroke-width="0.471366"/>
<path d="M246.533 34.5996L178.656 74.1943" stroke="#A16BFF" stroke-width="0.471366"/>
<path d="M248.419 36.4854L180.542 76.0801" stroke="#A16BFF" stroke-width="0.471366"/>
<path d="M250.304 38.3701L182.428 77.9648" stroke="#A16BFF" stroke-width="0.471366"/>
<path d="M240.877 47.7979L173 87.3926" stroke="#A16BFF" stroke-width="0.471366"/>
</g>
<g filter="url(#filter3_i_719_7674)">
<rect x="113" y="28" width="42.4229" height="42.4229" rx="21.2115" fill="#F0FDFF"/>
</g>
<mask id="mask2_719_7674" style="mask-type:alpha" maskUnits="userSpaceOnUse" x="113" y="28" width="43" height="43">
<rect x="113.471" y="28.4714" width="41.4802" height="41.4802" rx="20.7401" fill="#F9F0FF" stroke="#00CACD" stroke-width="0.942731"/>
</mask>
<g mask="url(#mask2_719_7674)">
<path d="M162.022 10.0889L94.1455 49.6836" stroke="#00CACD" stroke-width="0.471366"/>
<path d="M163.908 11.9736L96.0312 51.5683" stroke="#00CACD" stroke-width="0.471366"/>
<path d="M165.793 13.8594L97.916 53.4541" stroke="#00CACD" stroke-width="0.471366"/>
<path d="M167.678 15.7451L99.8018 55.3398" stroke="#00CACD" stroke-width="0.471366"/>
<path d="M169.564 17.6309L101.688 57.2256" stroke="#00CACD" stroke-width="0.471366"/>
<path d="M171.449 19.5156L103.572 59.1103" stroke="#00CACD" stroke-width="0.471366"/>
<path d="M173.335 21.4014L105.458 60.9961" stroke="#00CACD" stroke-width="0.471366"/>
<path d="M175.22 23.2871L107.344 62.8818" stroke="#00CACD" stroke-width="0.471366"/>
<path d="M177.106 25.1719L109.229 64.7666" stroke="#00CACD" stroke-width="0.471366"/>
<path d="M178.991 27.0576L111.114 66.6523" stroke="#00CACD" stroke-width="0.471366"/>
<path d="M180.877 28.9434L113 68.5381" stroke="#00CACD" stroke-width="0.471366"/>
<path d="M182.762 30.8291L114.886 70.4238" stroke="#00CACD" stroke-width="0.471366"/>
<path d="M184.647 32.7139L116.771 72.3086" stroke="#00CACD" stroke-width="0.471366"/>
<path d="M186.533 34.5996L118.656 74.1943" stroke="#00CACD" stroke-width="0.471366"/>
<path d="M188.419 36.4854L120.542 76.0801" stroke="#00CACD" stroke-width="0.471366"/>
<path d="M190.304 38.3701L122.428 77.9648" stroke="#00CACD" stroke-width="0.471366"/>
<path d="M180.877 47.7979L113 87.3926" stroke="#00CACD" stroke-width="0.471366"/>
</g>
<rect x="80" y="4" width="24" height="24" rx="12" fill="#262A30"/>
<path d="M89.3105 20H87.2539L90.4404 10.8086H92.8906L96.0645 20H94.0205L93.335 17.8799H90.0088L89.3105 20ZM90.4912 16.3945H92.8525L91.6973 12.8779H91.6338L90.4912 16.3945Z" fill="#269AFF"/>
<path d="M92 31L88.5359 27.25L95.4641 27.25L92 31Z" fill="#262A30"/>
<rect x="122" y="4" width="24" height="24" rx="12" fill="#262A30"/>
<path d="M130.274 20V10.8086H133.931C135.962 10.8086 136.978 11.7861 136.978 13.1699C136.978 14.249 136.279 14.9219 135.327 15.1377V15.2266C136.368 15.2773 137.346 16.1025 137.346 17.4609C137.346 18.9209 136.254 20 134.172 20H130.274ZM133.791 18.4258C134.896 18.4258 135.365 17.9688 135.365 17.2832C135.365 16.5088 134.781 15.9629 133.842 15.9629H132.179V18.4258H133.791ZM133.651 14.6553C134.451 14.6553 135.048 14.2109 135.048 13.4746C135.048 12.8145 134.565 12.3574 133.689 12.3574H132.179V14.6553H133.651Z" fill="#20E7C6"/>
<path d="M134 31L130.536 27.25L137.464 27.25L134 31Z" fill="#262A30"/>
<rect x="182" y="4" width="24" height="24" rx="12" fill="#262A30"/>
<path d="M195.919 14.0078C195.767 12.9922 194.979 12.3701 193.913 12.3701C192.479 12.3701 191.539 13.4746 191.539 15.4043C191.539 17.3848 192.491 18.4385 193.9 18.4385C194.954 18.4385 195.729 17.8545 195.919 16.8643L197.849 16.877C197.633 18.5781 196.211 20.127 193.875 20.127C191.412 20.127 189.597 18.4004 189.597 15.4043C189.597 12.4082 191.45 10.6816 193.875 10.6816C195.995 10.6816 197.595 11.9004 197.849 14.0078H195.919Z" fill="#F3CAFF"/>
<path d="M194 31L190.536 27.25L197.464 27.25L194 31Z" fill="#262A30"/>
<defs>
<filter id="filter0_i_719_7674" x="173" y="28" width="84" height="42" filterUnits="userSpaceOnUse" color-interpolation-filters="sRGB">
<feFlood flood-opacity="0" result="BackgroundImageFix"/>
<feBlend mode="normal" in="SourceGraphic" in2="BackgroundImageFix" result="shape"/>
<feColorMatrix in="SourceAlpha" type="matrix" values="0 0 0 0 0 0 0 0 0 0 0 0 0 0 0 0 0 0 127 0" result="hardAlpha"/>
<feOffset/>
<feGaussianBlur stdDeviation="10"/>
<feComposite in2="hardAlpha" operator="arithmetic" k2="-1" k3="1"/>
<feColorMatrix type="matrix" values="0 0 0 0 0.392233 0 0 0 0 0.57006 0 0 0 0 0.877216 0 0 0 0.1 0"/>
<feBlend mode="normal" in2="shape" result="effect1_innerShadow_719_7674"/>
</filter>
<filter id="filter1_i_719_7674" x="71" y="28" width="42.4229" height="42.4229" filterUnits="userSpaceOnUse" color-interpolation-filters="sRGB">
<feFlood flood-opacity="0" result="BackgroundImageFix"/>
<feBlend mode="normal" in="SourceGraphic" in2="BackgroundImageFix" result="shape"/>
<feColorMatrix in="SourceAlpha" type="matrix" values="0 0 0 0 0 0 0 0 0 0 0 0 0 0 0 0 0 0 127 0" result="hardAlpha"/>
<feOffset/>
<feGaussianBlur stdDeviation="10"/>
<feComposite in2="hardAlpha" operator="arithmetic" k2="-1" k3="1"/>
<feColorMatrix type="matrix" values="0 0 0 0 0.392233 0 0 0 0 0.57006 0 0 0 0 0.877216 0 0 0 0.1 0"/>
<feBlend mode="normal" in2="shape" result="effect1_innerShadow_719_7674"/>
</filter>
<filter id="filter2_i_719_7674" x="173" y="28" width="42.4229" height="42.4229" filterUnits="userSpaceOnUse" color-interpolation-filters="sRGB">
<feFlood flood-opacity="0" result="BackgroundImageFix"/>
<feBlend mode="normal" in="SourceGraphic" in2="BackgroundImageFix" result="shape"/>
<feColorMatrix in="SourceAlpha" type="matrix" values="0 0 0 0 0 0 0 0 0 0 0 0 0 0 0 0 0 0 127 0" result="hardAlpha"/>
<feOffset/>
<feGaussianBlur stdDeviation="10"/>
<feComposite in2="hardAlpha" operator="arithmetic" k2="-1" k3="1"/>
<feColorMatrix type="matrix" values="0 0 0 0 0.392233 0 0 0 0 0.57006 0 0 0 0 0.877216 0 0 0 0.1 0"/>
<feBlend mode="normal" in2="shape" result="effect1_innerShadow_719_7674"/>
</filter>
<filter id="filter3_i_719_7674" x="113" y="28" width="42.4229" height="42.4229" filterUnits="userSpaceOnUse" color-interpolation-filters="sRGB">
<feFlood flood-opacity="0" result="BackgroundImageFix"/>
<feBlend mode="normal" in="SourceGraphic" in2="BackgroundImageFix" result="shape"/>
<feColorMatrix in="SourceAlpha" type="matrix" values="0 0 0 0 0 0 0 0 0 0 0 0 0 0 0 0 0 0 127 0" result="hardAlpha"/>
<feOffset/>
<feGaussianBlur stdDeviation="10"/>
<feComposite in2="hardAlpha" operator="arithmetic" k2="-1" k3="1"/>
<feColorMatrix type="matrix" values="0 0 0 0 0.392233 0 0 0 0 0.57006 0 0 0 0 0.877216 0 0 0 0.1 0"/>
<feBlend mode="normal" in2="shape" result="effect1_innerShadow_719_7674"/>
</filter>
</defs>
</svg>
