<svg width="130" height="130" viewBox="0 0 130 130" fill="none" xmlns="http://www.w3.org/2000/svg">
<g filter="url(#filter0_i_186_5244)">
<path d="M76.7882 19C96.7816 19 112.99 35.2079 112.99 55.2013C112.99 75.1948 96.7816 91.4027 76.7882 91.4027L76.4121 107.12C76.3471 109.834 74.1283 112 71.4135 112H22C19.2386 112 17 109.761 17 107V60.2013C17 57.4399 19.2386 55.2013 22 55.2013H40.5868C40.5868 35.2079 56.7947 19 76.7882 19Z" fill="url(#paint0_linear_186_5244)"/>
</g>
<path d="M76.798 91.4023C56.8046 91.4023 40.5967 75.1944 40.5967 55.2009H71.798C74.5594 55.2009 76.798 57.4395 76.798 60.2009V91.4023Z" fill="#0041A9"/>
<defs>
<filter id="filter0_i_186_5244" x="17" y="19" width="96.9893" height="94" filterUnits="userSpaceOnUse" color-interpolation-filters="sRGB">
<feFlood flood-opacity="0" result="BackgroundImageFix"/>
<feBlend mode="normal" in="SourceGraphic" in2="BackgroundImageFix" result="shape"/>
<feColorMatrix in="SourceAlpha" type="matrix" values="0 0 0 0 0 0 0 0 0 0 0 0 0 0 0 0 0 0 127 0" result="hardAlpha"/>
<feOffset dx="1" dy="1"/>
<feGaussianBlur stdDeviation="0.5"/>
<feComposite in2="hardAlpha" operator="arithmetic" k2="-1" k3="1"/>
<feColorMatrix type="matrix" values="0 0 0 0 1 0 0 0 0 1 0 0 0 0 1 0 0 0 0.25 0"/>
<feBlend mode="normal" in2="shape" result="effect1_innerShadow_186_5244"/>
</filter>
<linearGradient id="paint0_linear_186_5244" x1="63.6902" y1="19" x2="63.6902" y2="117.617" gradientUnits="userSpaceOnUse">
<stop stop-color="#A16BFF"/>
<stop offset="1" stop-color="#0088FF"/>
</linearGradient>
</defs>
</svg>
