<svg width="24" height="24" viewBox="0 0 24 24" fill="#262A30" xmlns="http://www.w3.org/2000/svg">
<path d="M15 7C15 5.34315 13.6569 4 12 4C10.3431 4 9 5.34315 9 7C9 8.65685 10.3431 10 12 10V12C9.23858 12 7 9.76142 7 7C7 4.23858 9.23858 2 12 2C14.7614 2 17 4.23858 17 7C17 9.76142 14.7614 12 12 12V10C13.6569 10 15 8.65685 15 7Z"/>
<path d="M13 13C17.6331 13 21.4485 16.5009 21.9452 21.0016C22.0058 21.5506 21.5523 22 21 22C20.4477 22 20.0075 21.5497 19.9295 21.003C19.4456 17.6092 16.5275 15 13 15H11C7.4725 15 4.55442 17.6092 4.07046 21.003C3.9925 21.5497 3.55228 22 3 22C2.44772 22 1.99417 21.5506 2.05475 21.0016C2.55147 16.5009 6.3669 13 11 13H13Z"/>
</svg>
