<svg width="16" height="17" viewBox="0 0 16 17" fill="none" xmlns="http://www.w3.org/2000/svg">
<g clip-path="url(#clip0_220_1180)">
<path fill-rule="evenodd" clip-rule="evenodd" d="M16.0006 8.37861C16.0006 7.81111 15.9483 7.26622 15.8522 6.74243H8.16406V9.83692H12.5576C12.3684 10.837 11.7932 11.6841 10.9288 12.2516V14.2586H13.5674C15.1109 12.8658 16.0014 10.8152 16.0014 8.37861H16.0006Z" fill="#4185F4"/>
<path fill-rule="evenodd" clip-rule="evenodd" d="M8.16236 16.1969C10.3664 16.1969 12.2145 15.4802 13.5649 14.2585L10.9263 12.2516C10.1949 12.7316 9.26055 13.015 8.16159 13.015C6.03518 13.015 4.23561 11.6079 3.59346 9.71704H0.867188V11.7896C2.21071 14.404 4.97082 16.1969 8.16236 16.1969Z" fill="#33A853"/>
<path fill-rule="evenodd" clip-rule="evenodd" d="M3.59529 9.71701C3.43225 9.23694 3.3392 8.72446 3.3392 8.1969C3.3392 7.66934 3.43225 7.15686 3.59529 6.67679V4.60425H0.868253C0.315309 5.68423 0 6.9059 0 8.1969C0 9.4879 0.315309 10.7096 0.868253 11.7896L3.59529 9.71701Z" fill="#F9BB00"/>
<path fill-rule="evenodd" clip-rule="evenodd" d="M8.16236 3.37893C9.36053 3.37893 10.4372 3.78289 11.2831 4.57498L13.6249 2.28011C12.2106 0.989862 10.3626 0.197021 8.16236 0.197021C4.97082 0.197021 2.21071 1.98996 0.867188 4.60437L3.59422 6.67691C4.23638 4.786 6.03594 3.37893 8.16236 3.37893Z" fill="#EB4234"/>
</g>
<defs>
<clipPath id="clip0_220_1180">
<rect width="16" height="16" fill="white" transform="translate(0 0.197021)"/>
</clipPath>
</defs>
</svg>
